# xmcd CD database file
#
# Track frame offsets:
#	150
#	26099
#	46730
#	76022
#	109360
#	126021
#	145384
#	169006
#	186746
#	207037
#	220068
#	228433
#
# Disc length: 3303 seconds
#
# Revision: 0
# Processed by: cddbd v1.5.2PL0 Copyright (c) Steve Scherf et al.
# Submitted via: CDex 1.70beta2
#
DISCID=a60ce50c
DTITLE=Joe Bonamassa - No Hits, No Hype. Just The Best
DYEAR=2011
DGENRE=Blues
TTITLE0=Blue And Evil
TTITLE1=Dust Bowl
TTITLE2=The Ballad Of John Henry
TTITLE3=Sloe Gin
TTITLE4=Miss You, Hate You
TTITLE5=Black Lung Heartache
TTITLE6=The Battle For Hadrian's Wall
TTITLE7=One Last Soul
TTITLE8=Sinner's Prayer
TTITLE9=Woke Up Dreaming
TTITLE10=Palm Trees, Helicopters And Gasoline
TTITLE11=Asking Around for You
EXTD=YEAR: 2011
EXTT0=
EXTT1=
EXTT2=
EXTT3=
EXTT4=
EXTT5=
EXTT6=
EXTT7=
EXTT8=
EXTT9=
EXTT10=
EXTT11=
PLAYORDER=
